<svg width="110" height="24" viewBox="0 0 110 24" xmlns="http://www.w3.org/2000/svg" role="img" class="Header_qscLogo__q6UlG"><title>QSC</title><path d="M109.758 2.19527C109.713 2.31255 109.646 2.4181 109.567 2.50605C109.483 2.59401 109.387 2.66438 109.275 2.71129C109.162 2.76407 109.038 2.78752 108.909 2.78752C108.78 2.78752 108.656 2.76407 108.543 2.71129C108.431 2.65852 108.335 2.59401 108.251 2.50605C108.167 2.4181 108.105 2.31255 108.06 2.19527C108.015 2.07799 107.992 1.94898 107.992 1.81411C107.992 1.67924 108.015 1.55024 108.06 1.43296C108.105 1.31568 108.172 1.21013 108.251 1.12217C108.335 1.03421 108.431 0.963845 108.543 0.916934C108.656 0.864159 108.78 0.840703 108.909 0.840703C109.038 0.840703 109.162 0.864159 109.275 0.916934C109.387 0.969709 109.483 1.04008 109.567 1.12217C109.651 1.21013 109.713 1.31568 109.758 1.43296C109.803 1.55024 109.831 1.67924 109.831 1.81411C109.831 1.94898 109.809 2.07799 109.758 2.19527ZM109.916 1.36846C109.859 1.22772 109.781 1.11044 109.685 1.00489C109.589 0.899342 109.471 0.823111 109.336 0.764472C109.201 0.705833 109.061 0.676514 108.903 0.676514C108.746 0.676514 108.605 0.705833 108.47 0.764472C108.335 0.823111 108.223 0.905206 108.122 1.00489C108.026 1.10458 107.947 1.22772 107.891 1.36846C107.835 1.50919 107.807 1.65579 107.807 1.81411C107.807 1.97244 107.835 2.1249 107.891 2.25977C107.947 2.39464 108.026 2.51778 108.122 2.61747C108.217 2.71716 108.335 2.79925 108.47 2.85789C108.605 2.91653 108.746 2.94585 108.903 2.94585C109.061 2.94585 109.201 2.91653 109.336 2.85789C109.471 2.79925 109.584 2.71716 109.685 2.61747C109.781 2.51778 109.859 2.39464 109.916 2.25977C109.972 2.11904 110 1.97244 110 1.81411C110 1.65579 109.972 1.50919 109.916 1.36846ZM108.83 1.74961H108.622V1.29222H108.909C108.948 1.29222 108.988 1.29222 109.021 1.30395L109.117 1.33914L109.185 1.4095C109.185 1.4095 109.207 1.47401 109.207 1.52092C109.207 1.57369 109.196 1.6206 109.173 1.64992L109.089 1.72029C109.055 1.73202 109.01 1.74375 108.965 1.74375C108.92 1.74375 108.875 1.74375 108.825 1.74375M109.168 1.8493C109.207 1.8317 109.241 1.80825 109.269 1.77893C109.297 1.74961 109.32 1.71443 109.336 1.67338C109.353 1.63233 109.359 1.57956 109.359 1.52092C109.359 1.40364 109.325 1.31568 109.263 1.25118C109.196 1.18667 109.095 1.15735 108.948 1.15735H108.465V2.47087H108.622V1.88448H108.881L109.235 2.47087H109.415L109.038 1.88448C109.083 1.87862 109.123 1.86689 109.162 1.84343M30.2178 15.7644C30.2178 16.3273 29.7791 16.7847 29.2392 16.7847H27.4677V14.6619C27.4677 14.4333 27.2258 14.4098 27.2258 14.4098H20.9944C20.7526 14.4098 20.7413 14.6854 20.7413 14.6854V16.7847H9.27962C8.73971 16.7847 8.30104 16.3273 8.30104 15.7644V5.58461C8.30104 5.02167 8.73971 4.56429 9.27962 4.56429H29.2392C29.7791 4.56429 30.2178 5.02167 30.2178 5.58461V15.7644ZM34.8182 2.50605C34.6664 2.24804 34.4808 2.02521 34.2727 1.82584C34.0646 1.62647 33.8284 1.46228 33.5697 1.31568C33.311 1.16908 33.0242 1.0518 32.7205 0.957981C32.4112 0.864159 32.085 0.793792 31.7307 0.746881C31.3763 0.699969 31.0052 0.676514 30.6059 0.676514H5.3878C5.05598 0.676514 4.5667 0.758608 4.13365 0.899342C3.7006 1.04008 3.31817 1.23359 2.98073 1.47401C2.64328 1.71443 2.34521 1.99589 2.08088 2.31255C1.81656 2.6292 1.58597 2.98103 1.38351 3.36219C1.18104 3.74334 1.0067 4.15381 0.854849 4.58774C0.703001 5.02167 0.573649 5.47906 0.466793 5.9599C0.359937 6.44074 0.269952 6.94504 0.202464 7.46692C0.134976 7.98881 0.0843601 8.52829 0.0506161 9.09123C0.016872 9.6483 0 10.2288 0 10.8211C0 10.8211 0.016872 11.9939 0.0506161 12.5509C0.0843601 13.108 0.134976 13.6534 0.202464 14.1752C0.269952 14.6971 0.359937 15.2014 0.466793 15.6823C0.573649 16.1631 0.703001 16.6205 0.854849 17.0544C1.0067 17.4884 1.18104 17.8988 1.38351 18.28C1.58597 18.6611 1.81656 19.013 2.08088 19.3296C2.34521 19.6463 2.64328 19.9277 2.98073 20.1682C3.31817 20.4086 3.7006 20.6021 4.13365 20.7428C4.5667 20.8836 5.05598 20.9657 5.67463 20.9657H20.8257C20.8257 20.9657 20.8257 22.8773 20.8257 23.0004C20.8257 23.3523 21.0957 23.3229 21.0957 23.3229H27.2596C27.2596 23.3229 27.5408 23.3523 27.5408 23.0063C27.5408 22.8538 27.5408 20.9657 27.5408 20.9657H30.8814C31.1458 20.9657 31.5113 20.9246 31.7194 20.8953C32.0737 20.8484 32.3999 20.778 32.7092 20.6842C33.0186 20.5904 33.2998 20.4731 33.5585 20.3265C33.8172 20.1799 34.0534 20.0157 34.2615 19.8163C34.4696 19.617 34.6551 19.3941 34.807 19.1361C34.9588 18.8781 35.0826 18.5908 35.1669 18.2683C35.2513 17.9457 35.3019 17.5763 35.3019 17.16V4.48219C35.3019 4.06586 35.2513 3.70229 35.1669 3.37391C35.0826 3.04553 34.9588 2.7582 34.807 2.50605M71.2281 12.3985C71.1493 12.029 71.0425 11.6889 70.9188 11.3664C70.7894 11.0439 70.6432 10.7507 70.4632 10.481C70.2889 10.2112 70.0864 9.97081 69.8502 9.75971C69.6196 9.54861 69.3553 9.36683 69.0628 9.22023C68.7704 9.07364 68.4498 8.95636 68.0899 8.88013C67.7299 8.8039 67.3363 8.76285 66.9032 8.76285H47.4441C47.1067 8.76285 46.8368 8.48138 46.8368 8.12955V5.43215C46.8368 5.08031 47.1067 4.79884 47.4441 4.79884H70.4014C70.8232 4.79884 71.1606 4.44701 71.1606 4.00722V1.46814C71.1606 1.02835 70.8232 0.676514 70.4014 0.676514H42.2757C41.8426 0.676514 41.4489 0.717561 41.089 0.793792C40.7291 0.870023 40.4085 0.987301 40.1161 1.1339C39.8236 1.2805 39.5649 1.46228 39.3343 1.67338C39.1037 1.88448 38.9013 2.1249 38.7213 2.39464C38.547 2.66438 38.3951 2.95758 38.2658 3.28009C38.142 3.59674 38.0352 3.94271 37.9564 4.31214C37.8721 4.68157 37.8158 5.06858 37.7765 5.48492C37.7371 5.8954 37.7202 6.32933 37.7202 6.78085C37.7202 7.23237 37.7371 7.6663 37.7765 8.07677C37.8158 8.48725 37.8721 8.88013 37.9564 9.24369C38.0352 9.61312 38.142 9.95322 38.2658 10.2757C38.3951 10.5983 38.5413 10.8914 38.7213 11.1612C38.8956 11.4309 39.1037 11.6714 39.3343 11.8825C39.5649 12.0936 39.8236 12.2753 40.1161 12.4219C40.4085 12.5685 40.7347 12.6858 41.089 12.762C41.4489 12.8383 41.8426 12.8793 42.2757 12.8793H61.7348C62.0722 12.8793 62.3421 13.1608 62.3421 13.5126V16.3683C62.3421 16.7202 62.0722 17.0016 61.7348 17.0016H38.7775C38.3557 17.0016 38.0183 17.3535 38.0183 17.7933V20.174C38.0183 20.6138 38.3614 20.9657 38.7775 20.9657H66.9032C67.3363 20.9657 67.7299 20.9246 68.0899 20.8484C68.4498 20.7721 68.7704 20.6549 69.0628 20.5083C69.3553 20.3617 69.614 20.1799 69.8502 19.9688C70.0808 19.7577 70.2832 19.5173 70.4632 19.2475C70.6432 18.9778 70.7894 18.6846 70.9188 18.3621C71.0481 18.0454 71.1493 17.6995 71.2281 17.33C71.3124 16.9606 71.3687 16.5736 71.4081 16.1631C71.4474 15.7526 71.4643 15.3187 71.4643 14.8672C71.4643 14.4157 71.4474 13.9817 71.4081 13.5713C71.3687 13.1608 71.3068 12.7679 71.2281 12.4043M106.507 0.676514H79.3098C78.7418 0.676514 78.2468 0.752745 77.8025 0.887615C77.3639 1.02248 76.9758 1.21013 76.6327 1.44469C76.2897 1.67924 75.986 1.96071 75.7217 2.27736C75.4573 2.59401 75.2211 2.94585 75.0187 3.327C74.8162 3.70816 74.6419 4.11863 74.49 4.55842C74.3382 4.99822 74.2144 5.4556 74.1076 5.94231C74.0007 6.42901 73.9164 6.93331 73.8545 7.46106C73.787 7.98881 73.742 8.52829 73.7139 9.09123C73.6802 9.65416 73.6689 10.2288 73.6689 10.8269C73.6689 11.4251 73.6802 11.9997 73.7139 12.5627C73.742 13.1256 73.7926 13.6709 73.8545 14.1928C73.922 14.7206 74.0063 15.2249 74.1076 15.7116C74.2088 16.1983 74.3382 16.6615 74.49 17.0955C74.6419 17.5353 74.8162 17.9457 75.0187 18.3269C75.2211 18.708 75.4517 19.0599 75.7217 19.3765C75.986 19.6932 76.2897 19.9688 76.6327 20.2092C76.9758 20.4438 77.3639 20.6373 77.8025 20.7663C78.2412 20.9011 78.7418 20.9774 79.3098 20.9774H106.507C106.845 20.9774 107.115 20.6959 107.115 20.3441V17.5529C107.115 17.201 106.845 16.9196 106.507 16.9196H82.7629C82.4255 16.9196 82.1555 16.6381 82.1555 16.2862V5.36764C82.1555 5.01581 82.4255 4.73434 82.7629 4.73434H106.507C106.845 4.73434 107.115 4.45287 107.115 4.10104V1.30982C107.115 0.957981 106.845 0.676514 106.507 0.676514Z"></path></svg>